<?xml version="1.0" encoding="utf-8"?>
<!-- Generator: Adobe Illustrator 16.0.4, SVG Export Plug-In . SVG Version: 6.00 Build 0)  -->
<!DOCTYPE svg PUBLIC "-//W3C//DTD SVG 1.1//EN" "http://www.w3.org/Graphics/SVG/1.1/DTD/svg11.dtd">
<svg version="1.1" id="Layer_1" xmlns="http://www.w3.org/2000/svg" xmlns:xlink="http://www.w3.org/1999/xlink" x="0px" y="0px"
	 width="100%" height="100%" xml:space="preserve">
<style type="text/css">
<![CDATA[
	.st0{fill:#FEEBAB;}
	.st1{fill:#3B3C40;}
]]>
</style>
<g>
	<path class="st0" d="M317.7,647.7c-1.9,0-3.9-0.3-5.8-0.9c-8.3-2.8-13.5-11.1-12.3-19.8l29.1-208.8h-92c-5.2,0-10.1-2.2-13.6-6.1
		c-3.5-3.9-5.1-9-4.6-14.2l28.8-264.3c1-9.3,8.8-16.3,18.2-16.3h181.1c5.9,0,11.5,2.9,14.9,7.7c3.4,4.8,4.3,11.1,2.3,16.7l-52,146
		l15.5-0.7l65.9-3.9c6.5-0.4,12.8,2.8,16.4,8.3c3.6,5.5,3.9,12.6,0.9,18.4l-88.3,168.7l-88.5,159.9
		C330.3,644.2,324.1,647.7,317.7,647.7z"/>
	<path class="st1" d="M257.2,647.7c-1.9,0-3.9-0.3-5.8-0.9c-8.3-2.8-13.5-11.1-12.3-19.8l29.1-208.8h-92c-5.2,0-10.1-2.2-13.6-6.1
		c-3.5-3.9-5.1-9-4.6-14.2l28.8-264.3c1-9.3,8.8-16.3,18.2-16.3h181.1c5.9,0,11.5,2.9,14.9,7.7c3.4,4.8,4.3,11.1,2.3,16.7l-52,146
		l15.5-0.7l65.9-3.9c6.5-0.4,12.8,2.8,16.4,8.3c3.6,5.5,3.9,12.6,0.9,18.4l-88.3,168.7l-88.5,159.9
		C269.9,644.2,263.7,647.7,257.2,647.7z M196.6,381.6h92.6c5.3,0,10.3,2.3,13.8,6.3c3.5,4,5,9.3,4.3,14.5l-18.4,132.2l40.7-73.5
		l73.1-139.7l-33.9,2l-42.9,2c-6.2,0.3-11.9-2.5-15.5-7.4c-3.6-4.9-4.6-11.3-2.5-17l52.4-147.2H221.4L196.6,381.6z"/>
</g>
</svg>
