<?xml version="1.0" encoding="utf-8"?>
<!-- Generator: Adobe Illustrator 16.0.4, SVG Export Plug-In . SVG Version: 6.00 Build 0)  -->
<!DOCTYPE svg PUBLIC "-//W3C//DTD SVG 1.1//EN" "http://www.w3.org/Graphics/SVG/1.1/DTD/svg11.dtd">
<svg version="1.1" id="Layer_1" xmlns="http://www.w3.org/2000/svg" xmlns:xlink="http://www.w3.org/1999/xlink" x="0px" y="0px"
	 width="24px" height="24px" viewBox="0 0 24 24" style="enable-background:new 0 0 24 24;" xml:space="preserve">
<style type="text/css">
<![CDATA[
	.st0{clip-path:url(#SVGID_2_);fill:none;stroke:#3B3C40;stroke-width:2;stroke-miterlimit:10;}
	.st1{clip-path:url(#SVGID_2_);fill:#FFECAB;}
]]>
</style>
<g>
	<defs>
		<rect id="SVGID_1_" width="24" height="24"/>
	</defs>
	<clipPath id="SVGID_2_">
		<use xlink:href="#SVGID_1_"  style="overflow:visible;"/>
	</clipPath>
	<path class="st1" d="M13.5,1.2l7.2,0.3c0.3,0,0.4,0.3,0.2,0.5l-7.6,7.2c-0.2,0.2-0.1,0.5,0.2,0.6l5,0.3c0.3,0,0.5,0.4,0.3,0.6
		L6.1,23C6.1,23,5.7,23,5.9,22.7l4.7-8.8c0.1-0.3-0.1-0.6-0.4-0.6l-5-0.2c-0.4,0-0.6-0.4-0.4-0.7l7.5-10.6C12.6,1.4,13,1.2,13.5,1.2
		"/>
	<path class="st0" d="M13.4,1.2l7.2,0.3c0.3,0,0.4,0.3,0.2,0.5l-7.6,7.2c-0.2,0.2-0.1,0.5,0.2,0.6l5,0.3c0.3,0,0.5,0.4,0.3,0.6
		L6.1,23C6,23,5.6,23,5.8,22.7l4.7-8.8c0.1-0.3-0.1-0.6-0.4-0.6l-5-0.2c-0.4,0-0.6-0.4-0.4-0.7l7.5-10.6C12.5,1.4,12.9,1.2,13.4,1.2
		z"/>
</g>
</svg>
